<?xml version="1.0" standalone="no"?>
<!DOCTYPE svg PUBLIC "-//W3C//DTD SVG 20010904//EN"
 "http://www.w3.org/TR/2001/REC-SVG-20010904/DTD/svg10.dtd">
<svg version="1.0" xmlns="http://www.w3.org/2000/svg"
 width="500.000000pt" height="500.000000pt" viewBox="0 0 500.000000 500.000000"
 preserveAspectRatio="xMidYMid meet">

<g transform="translate(0.000000,500.000000) scale(0.100000,-0.100000)"
fill="#000000" stroke="none">
<path d="M1348 4454 c-246 -59 -427 -287 -428 -536 0 -174 49 -298 165 -413
116 -116 235 -165 403 -165 160 0 289 55 403 171 106 108 159 238 159 389 0
96 -16 162 -60 255 -112 234 -385 362 -642 299z m212 -64 c153 -24 296 -130
363 -271 101 -210 53 -438 -127 -596 -168 -148 -445 -150 -619 -6 -190 159
-241 408 -126 624 76 141 252 248 424 258 11 0 49 -4 85 -9z"/>
<path d="M3540 3749 c-215 -149 -394 -277 -397 -285 -8 -21 18 -46 41 -42 12
3 186 120 389 261 l367 256 385 -267 385 -267 0 -727 0 -728 -1755 0 -1755 0
0 105 0 105 278 0 c203 0 281 3 290 12 9 9 12 109 12 389 l0 377 385 267 385
266 385 -266 385 -266 0 -379 c0 -306 3 -380 14 -389 9 -8 165 -10 562 -9
l549 3 0 30 0 30 -525 5 -525 5 -3 372 -2 371 -293 203 c-160 112 -346 241
-412 287 -78 54 -127 82 -140 79 -11 -2 -203 -131 -427 -286 l-408 -283 0
-374 0 -374 -255 0 -255 0 0 74 c0 73 0 74 30 86 42 18 96 83 122 149 19 47
22 76 22 176 0 105 -3 129 -26 191 -44 121 -144 264 -183 264 -47 0 -150 -156
-192 -288 -23 -73 -25 -95 -21 -190 4 -90 9 -117 32 -167 30 -67 74 -118 117
-136 28 -11 29 -13 29 -85 l0 -74 -280 0 -280 0 0 193 0 194 37 24 c90 58 137
165 137 309 0 145 -43 270 -136 392 -74 98 -79 98 -152 5 -87 -110 -146 -265
-146 -387 0 -58 24 -169 45 -212 22 -42 72 -95 107 -114 l28 -15 0 -194 0
-194 -132 -3 -133 -3 0 -30 0 -30 453 -3 452 -2 0 -105 0 -104 -106 -3 c-112
-3 -136 -13 -121 -52 6 -15 156 -16 1939 -14 l1933 3 3 781 2 780 -332 230
c-438 302 -500 344 -508 344 -4 0 -184 -122 -400 -271z m-2967 -481 c51 -79
103 -206 79 -196 -5 1 -57 21 -115 43 -59 22 -107 45 -107 51 0 15 90 154 100
154 4 0 24 -24 43 -52z m-30 -234 c83 -30 126 -51 129 -62 8 -31 -4 -113 -16
-118 -7 -3 -68 17 -137 43 -123 48 -124 49 -127 83 -4 42 6 100 18 100 4 0 65
-21 133 -46z m702 -79 c38 -79 50 -115 38 -115 -4 0 -53 17 -108 38 -118 45
-119 48 -53 144 l41 61 24 -29 c13 -16 39 -60 58 -99z m-723 -137 c59 -22 108
-45 108 -50 0 -17 -57 -67 -85 -74 -18 -4 -37 -2 -54 8 -43 26 -114 158 -84
158 3 0 55 -19 115 -42z m733 -48 l50 -17 -1 -67 c0 -36 -3 -69 -7 -72 -3 -3
-66 16 -139 44 l-133 49 1 44 c0 24 3 56 7 71 l7 27 83 -31 c45 -17 105 -38
132 -48z m13 -235 c10 -10 -49 -74 -77 -83 -23 -8 -37 -7 -62 6 -37 19 -85 89
-95 139 l-6 32 118 -45 c65 -25 120 -47 122 -49z"/>
<path d="M1987 1453 c-2 -4 -35 -107 -72 -228 -37 -121 -70 -225 -72 -231 -2
-7 10 -16 27 -22 34 -12 33 -14 55 60 l12 43 60 3 59 3 13 -82 14 -81 30 6
c17 3 32 7 33 9 2 2 -18 120 -44 262 l-47 260 -32 3 c-17 2 -33 -1 -36 -5z
m52 -290 c1 -8 -13 -13 -38 -13 l-39 0 19 62 c29 97 31 98 45 28 7 -36 13 -71
13 -77z"/>
<path d="M3456 1318 c-116 -370 -110 -337 -60 -352 18 -6 23 1 37 54 l17 60
59 0 59 0 14 -77 c13 -77 14 -78 42 -76 16 1 30 4 33 6 2 3 -17 122 -43 266
l-48 261 -32 0 -33 0 -45 -142z m89 -117 l7 -51 -36 0 c-43 0 -43 4 -14 91 20
58 22 62 29 37 4 -15 10 -50 14 -77z"/>
<path d="M1375 1426 c-65 -29 -101 -99 -112 -213 -11 -117 34 -219 111 -254
42 -18 87 -15 122 9 21 14 54 77 54 105 0 23 -4 27 -29 27 -25 0 -31 -5 -36
-30 -4 -17 -18 -38 -32 -47 -22 -15 -28 -15 -51 -2 -46 26 -64 62 -69 136 -12
162 71 272 132 176 14 -23 28 -32 48 -33 32 0 37 26 11 68 -34 58 -97 82 -149
58z"/>
<path d="M1620 1190 l0 -249 85 2 85 2 0 33 c0 32 0 32 -50 32 l-50 0 0 74 0
74 35 6 c31 6 35 11 35 36 0 28 -3 30 -35 30 l-35 0 0 74 0 75 47 3 c44 3 48
5 50 31 l2 27 -85 0 -84 0 0 -250z"/>
<path d="M2389 1298 l0 -143 -57 113 c-44 87 -61 112 -77 112 -44 0 -45 -8
-52 -218 l-6 -202 36 0 37 0 1 138 0 137 60 -119 c33 -66 61 -122 64 -124 2
-2 17 -1 34 3 l31 7 0 219 0 219 -35 0 -35 0 -1 -142z"/>
<path d="M2892 1420 c-36 -22 -62 -72 -62 -120 0 -47 24 -95 80 -159 52 -60
63 -98 35 -121 -12 -10 -20 -9 -40 4 -14 9 -25 20 -25 25 0 5 -13 4 -30 -2
-39 -15 -38 -28 5 -66 46 -40 104 -43 140 -7 52 52 45 121 -18 193 -65 72 -77
94 -77 135 0 41 21 68 54 68 31 0 46 -18 46 -56 0 -26 5 -34 29 -42 24 -8 31
-7 35 5 18 47 -8 119 -53 146 -38 23 -79 21 -119 -3z"/>
<path d="M3110 1410 c0 -25 5 -30 33 -35 l32 -6 -3 -215 -4 -214 36 0 36 0 0
215 0 215 40 0 c39 0 40 1 40 35 l0 35 -105 0 -105 0 0 -30z"/>
<path d="M3910 1365 c0 -122 -45 -201 -91 -159 -26 23 -39 76 -39 157 l0 67
-36 0 -37 0 5 -89 c9 -153 56 -219 150 -208 47 6 48 5 48 -21 0 -48 -20 -101
-40 -107 -21 -7 -60 10 -60 25 0 6 -16 10 -35 10 -19 0 -35 -2 -35 -4 0 -24
28 -70 51 -81 37 -19 99 -19 127 1 47 33 52 59 52 279 l0 205 -30 0 -30 0 0
-75z"/>
<path d="M964 1416 c-65 -29 -106 -121 -107 -242 -1 -72 2 -86 30 -134 72
-129 219 -128 282 3 38 78 46 148 27 225 -18 75 -38 107 -86 140 -38 25 -98
29 -146 8z m130 -81 c65 -70 60 -223 -9 -292 -54 -54 -110 -38 -146 41 -33 73
-17 200 32 252 31 34 92 33 123 -1z"/>
<path d="M2520 1200 l0 -30 125 0 125 0 0 30 0 30 -125 0 -125 0 0 -30z"/>
</g>
</svg>
